<svg xmlns="http://www.w3.org/2000/svg" xmlns:xlink="http://www.w3.org/1999/xlink" version="1.0" x="0px" y="0px" viewBox="0 0 100 100" enable-background="new 0 0 100 100" xml:space="preserve"><g><path fill="#000000" d="M67,45H33c-0.552,0-1-0.448-1-1v-9c0-9.925,8.075-18,18-18c9.925,0,18,8.075,18,18v9   C68,44.552,67.553,45,67,45z M34,43h32v-8c0-8.822-7.178-16-16-16s-16,7.178-16,16V43z"></path></g><g><path fill="#000000" d="M50,79c-4.104,0-8.12-1.418-11.306-3.993c-1.57-1.268-2.907-2.778-3.974-4.488   c-0.292-0.469-0.149-1.085,0.319-1.378c0.469-0.292,1.085-0.148,1.378,0.319c0.949,1.521,2.138,2.863,3.534,3.991   C42.783,75.74,46.352,77,50,77c5.543,0,10.62-2.832,13.582-7.576c0.294-0.468,0.91-0.611,1.378-0.319   c0.469,0.293,0.611,0.91,0.319,1.378C61.949,75.816,56.237,79,50,79z"></path></g><g><path fill="#000000" d="M67,49c-0.553,0-1-0.448-1-1v-3H34v3c0,0.552-0.448,1-1,1s-1-0.448-1-1v-4c0-0.552,0.448-1,1-1h34   c0.553,0,1,0.448,1,1v4C68,48.552,67.553,49,67,49z"></path></g><g><path fill="#000000" d="M43,33c-2.206,0-4-1.794-4-4s1.794-4,4-4s4,1.794,4,4S45.206,33,43,33z M43,27c-1.103,0-2,0.897-2,2   s0.897,2,2,2s2-0.897,2-2S44.103,27,43,27z"></path></g><g><path fill="#000000" d="M57,33c-2.206,0-4-1.794-4-4s1.794-4,4-4s4,1.794,4,4S59.206,33,57,33z M57,27c-1.103,0-2,0.897-2,2   s0.897,2,2,2s2-0.897,2-2S58.103,27,57,27z"></path></g><g><g><path fill="#000000" d="M34.908,17.1c-1.351,0-2.6-0.673-3.343-1.799c-0.588-0.892-0.793-1.96-0.578-3.006    c0.215-1.047,0.825-1.947,1.717-2.535C33.36,9.328,34.12,9.1,34.902,9.1c1.351,0,2.6,0.672,3.342,1.799    c1.214,1.842,0.703,4.328-1.139,5.541C36.45,16.872,35.69,17.1,34.908,17.1z M34.902,11.1c-0.39,0-0.77,0.114-1.098,0.33    c-0.446,0.294-0.751,0.744-0.859,1.268c-0.107,0.523-0.005,1.057,0.289,1.503c0.585,0.889,1.874,1.159,2.771,0.57    c0.921-0.607,1.176-1.85,0.569-2.771C36.203,11.436,35.578,11.1,34.902,11.1z"></path></g><g><path fill="#000000" d="M39.774,21.985c-0.325,0-0.644-0.158-0.836-0.45l-3.11-4.72c-0.304-0.461-0.176-1.082,0.285-1.385    c0.461-0.305,1.082-0.177,1.385,0.285l3.11,4.72c0.304,0.461,0.176,1.082-0.285,1.385C40.154,21.932,39.963,21.985,39.774,21.985z    "></path></g></g><g><g><path fill="#000000" d="M40,40c-0.256,0-0.512-0.098-0.707-0.293c-0.391-0.391-0.391-1.023,0-1.414l2.333-2.333    c0.391-0.391,1.023-0.391,1.414,0s0.391,1.023,0,1.414l-2.333,2.333C40.512,39.902,40.256,40,40,40z"></path></g><g><path fill="#000000" d="M44.334,40c-0.282,0-0.562-0.119-0.76-0.349l-2-2.333c-0.359-0.419-0.311-1.051,0.108-1.41    c0.418-0.36,1.05-0.312,1.41,0.108l2,2.333c0.359,0.419,0.311,1.051-0.108,1.41C44.796,39.921,44.564,40,44.334,40z"></path></g><g><path fill="#000000" d="M45,40c-0.256,0-0.512-0.098-0.707-0.293c-0.391-0.391-0.391-1.023,0-1.414l2.333-2.333    c0.391-0.391,1.023-0.391,1.414,0s0.391,1.023,0,1.414l-2.333,2.333C45.512,39.902,45.256,40,45,40z"></path></g><g><path fill="#000000" d="M49.334,40c-0.282,0-0.562-0.119-0.76-0.349l-2-2.333c-0.359-0.419-0.311-1.051,0.108-1.41    c0.419-0.36,1.05-0.312,1.41,0.108l2,2.333c0.359,0.419,0.311,1.051-0.108,1.41C49.796,39.921,49.564,40,49.334,40z"></path></g><g><path fill="#000000" d="M50,40c-0.256,0-0.512-0.098-0.707-0.293c-0.391-0.39-0.391-1.023,0-1.414l2.333-2.333    c0.391-0.391,1.023-0.391,1.414,0c0.391,0.39,0.391,1.023,0,1.414l-2.333,2.333C50.512,39.902,50.256,40,50,40z"></path></g><g><path fill="#000000" d="M54.333,40c-0.281,0-0.562-0.119-0.76-0.349l-2-2.333c-0.359-0.419-0.311-1.051,0.109-1.41    c0.419-0.358,1.05-0.311,1.41,0.108l2,2.333c0.359,0.419,0.311,1.051-0.109,1.41C54.795,39.921,54.563,40,54.333,40z"></path></g><g><path fill="#000000" d="M55,40c-0.256,0-0.512-0.098-0.707-0.293c-0.391-0.39-0.391-1.023,0-1.414l2.333-2.333    c0.391-0.391,1.023-0.391,1.414,0c0.391,0.39,0.391,1.023,0,1.414l-2.333,2.333C55.512,39.902,55.256,40,55,40z"></path></g><g><path fill="#000000" d="M59.333,40c-0.281,0-0.562-0.119-0.76-0.349l-2-2.333c-0.359-0.419-0.311-1.051,0.109-1.41    c0.42-0.358,1.051-0.311,1.41,0.108l2,2.333c0.359,0.419,0.311,1.051-0.109,1.41C59.795,39.921,59.563,40,59.333,40z"></path></g></g><g><path fill="#000000" d="M32.25,73h-0.5C29.131,73,27,70.869,27,68.25v-16.5c0-2.619,2.131-4.75,4.75-4.75h0.5   c2.619,0,4.75,2.131,4.75,4.75v16.5C37,70.869,34.869,73,32.25,73z M31.75,49C30.233,49,29,50.233,29,51.75v16.5   c0,1.517,1.233,2.75,2.75,2.75h0.5c1.517,0,2.75-1.233,2.75-2.75v-16.5c0-1.517-1.233-2.75-2.75-2.75H31.75z"></path></g><g><path fill="#000000" d="M43.25,91h-0.5C40.131,91,38,88.869,38,86.25v-10.5c0-0.692,0.149-1.188,0.374-1.718   c0.216-0.508,0.802-0.745,1.311-0.53c0.508,0.216,0.746,0.803,0.531,1.312C40.05,75.203,40,75.422,40,75.75v10.5   c0,1.517,1.233,2.75,2.75,2.75h0.5c1.517,0,2.75-1.233,2.75-2.75V78c0-0.553,0.448-1,1-1s1,0.447,1,1v8.25   C48,88.869,45.869,91,43.25,91z"></path></g><g><path fill="#000000" d="M56.25,91h-0.5C53.131,91,51,88.869,51,86.25V78c0-0.553,0.447-1,1-1s1,0.447,1,1v8.25   c0,1.517,1.233,2.75,2.75,2.75h0.5c1.517,0,2.75-1.233,2.75-2.75v-10.5c0-0.174-0.01-0.21-0.071-0.443l0.95-0.32l0.968-0.253   l-0.968,0.253l0.984-0.188C60.939,75.088,61,75.317,61,75.75v10.5C61,88.869,58.869,91,56.25,91z"></path></g><g><path fill="#000000" stroke="#010101" stroke-width="2" stroke-linecap="round" stroke-linejoin="round" stroke-miterlimit="10" d="   M64.918,69.158"></path></g><g><g><defs><path id="d" d="M45.104,49.75l3.177-0.125l-0.307,28.144L59.116,75c2.855-2.235,3.358-3.109,4.884-6.75V55.667l0.431-5     L67,48v-3.167c-0.259-0.617-1.538-0.249-1.841-0.833H45"></path></defs><clipPath id="a"><use xlink:href="#d" overflow="visible"></use></clipPath><g clip-path="url(#a)"><rect x="65" y="41" fill="none" width="4" height="4"></rect><circle fill="#000000" cx="67" cy="43" r="1"></circle></g><g clip-path="url(#a)"><rect x="65" y="45" fill="none" width="4" height="4"></rect><circle fill="#000000" cx="67" cy="47" r="1"></circle></g><g clip-path="url(#a)"><rect x="65" y="49" fill="none" width="4" height="4"></rect><circle fill="#000000" cx="67" cy="51" r="1"></circle></g><g clip-path="url(#a)"><rect x="65" y="53" fill="none" width="4" height="4"></rect><circle fill="#000000" cx="67" cy="55" r="1"></circle></g><g clip-path="url(#a)"><rect x="65" y="57" fill="none" width="4" height="4"></rect><circle fill="#000000" cx="67" cy="59" r="1"></circle></g><g clip-path="url(#a)"><rect x="65" y="61" fill="none" width="4" height="4"></rect><circle fill="#000000" cx="67" cy="63" r="1"></circle></g><g clip-path="url(#a)"><rect x="65" y="65" fill="none" width="4" height="4"></rect><circle fill="#000000" cx="67" cy="67" r="1"></circle></g><g clip-path="url(#a)"><rect x="65" y="69" fill="none" width="4" height="4"></rect><circle fill="#000000" cx="67" cy="71" r="1"></circle></g><g clip-path="url(#a)"><rect x="65" y="73" fill="none" width="4" height="4"></rect><circle fill="#000000" cx="67" cy="75" r="1"></circle></g><g clip-path="url(#a)"><rect x="65" y="77" fill="none" width="4" height="4"></rect><circle fill="#000000" cx="67" cy="79" r="1"></circle></g><g clip-path="url(#a)"><rect x="61" y="41" fill="none" width="4" height="4"></rect><circle fill="#000000" cx="63" cy="43" r="1"></circle></g><g clip-path="url(#a)"><rect x="61" y="45" fill="none" width="4" height="4"></rect><circle fill="#000000" cx="63" cy="47" r="1"></circle></g><g clip-path="url(#a)"><rect x="61" y="49" fill="none" width="4" height="4"></rect><circle fill="#000000" cx="63" cy="51" r="1"></circle></g><g clip-path="url(#a)"><rect x="61" y="53" fill="none" width="4" height="4"></rect><circle fill="#000000" cx="63" cy="55" r="1"></circle></g><g clip-path="url(#a)"><rect x="61" y="57" fill="none" width="4" height="4"></rect><circle fill="#000000" cx="63" cy="59" r="1"></circle></g><g clip-path="url(#a)"><rect x="61" y="61" fill="none" width="4" height="4"></rect><circle fill="#000000" cx="63" cy="63" r="1"></circle></g><g clip-path="url(#a)"><rect x="61" y="65" fill="none" width="4" height="4"></rect><circle fill="#000000" cx="63" cy="67" r="1"></circle></g><g clip-path="url(#a)"><rect x="61" y="69" fill="none" width="4" height="4"></rect><circle fill="#000000" cx="63" cy="71" r="1"></circle></g><g clip-path="url(#a)"><rect x="61" y="73" fill="none" width="4" height="4"></rect><circle fill="#000000" cx="63" cy="75" r="1"></circle></g><g clip-path="url(#a)"><rect x="61" y="77" fill="none" width="4" height="4"></rect><circle fill="#000000" cx="63" cy="79" r="1"></circle></g><g clip-path="url(#a)"><rect x="57" y="41" fill="none" width="4" height="4"></rect><circle fill="#000000" cx="59" cy="43" r="1"></circle></g><g clip-path="url(#a)"><rect x="57" y="45" fill="none" width="4" height="4"></rect><circle fill="#000000" cx="59" cy="47" r="1"></circle></g><g clip-path="url(#a)"><rect x="57" y="49" fill="none" width="4" height="4"></rect><circle fill="#000000" cx="59" cy="51" r="1"></circle></g><g clip-path="url(#a)"><rect x="57" y="53" fill="none" width="4" height="4"></rect><circle fill="#000000" cx="59" cy="55" r="1"></circle></g><g clip-path="url(#a)"><rect x="57" y="57" fill="none" width="4" height="4"></rect><circle fill="#000000" cx="59" cy="59" r="1"></circle></g><g clip-path="url(#a)"><rect x="57" y="61" fill="none" width="4" height="4"></rect><circle fill="#000000" cx="59" cy="63" r="1"></circle></g><g clip-path="url(#a)"><rect x="57" y="65" fill="none" width="4" height="4"></rect><circle fill="#000000" cx="59" cy="67" r="1"></circle></g><g clip-path="url(#a)"><rect x="57" y="69" fill="none" width="4" height="4"></rect><circle fill="#000000" cx="59" cy="71" r="1"></circle></g><g clip-path="url(#a)"><rect x="57" y="73" fill="none" width="4" height="4"></rect><circle fill="#000000" cx="59" cy="75" r="1"></circle></g><g clip-path="url(#a)"><rect x="57" y="77" fill="none" width="4" height="4"></rect><circle fill="#000000" cx="59" cy="79" r="1"></circle></g><g clip-path="url(#a)"><rect x="53" y="41" fill="none" width="4" height="4"></rect><circle fill="#000000" cx="55" cy="43" r="1"></circle></g><g clip-path="url(#a)"><rect x="53" y="45" fill="none" width="4" height="4"></rect><circle fill="#000000" cx="55" cy="47" r="1"></circle></g><g clip-path="url(#a)"><rect x="53" y="49" fill="none" width="4" height="4"></rect><circle fill="#000000" cx="55" cy="51" r="1"></circle></g><g clip-path="url(#a)"><rect x="53" y="53" fill="none" width="4" height="4"></rect><circle fill="#000000" cx="55" cy="55" r="1"></circle></g><g clip-path="url(#a)"><rect x="53" y="57" fill="none" width="4" height="4"></rect><circle fill="#000000" cx="55" cy="59" r="1"></circle></g><g clip-path="url(#a)"><rect x="53" y="61" fill="none" width="4" height="4"></rect><circle fill="#000000" cx="55" cy="63" r="1"></circle></g><g clip-path="url(#a)"><rect x="53" y="65" fill="none" width="4" height="4"></rect><circle fill="#000000" cx="55" cy="67" r="1"></circle></g><g clip-path="url(#a)"><rect x="53" y="69" fill="none" width="4" height="4"></rect><circle fill="#000000" cx="55" cy="71" r="1"></circle></g><g clip-path="url(#a)"><rect x="53" y="73" fill="none" width="4" height="4"></rect><circle fill="#000000" cx="55" cy="75" r="1"></circle></g><g clip-path="url(#a)"><rect x="53" y="77" fill="none" width="4" height="4"></rect><circle fill="#000000" cx="55" cy="79" r="1"></circle></g><g clip-path="url(#a)"><rect x="49" y="41" fill="none" width="4" height="4"></rect><circle fill="#000000" cx="51" cy="43" r="1"></circle></g><g clip-path="url(#a)"><rect x="49" y="45" fill="none" width="4" height="4"></rect><circle fill="#000000" cx="51" cy="47" r="1"></circle></g><g clip-path="url(#a)"><rect x="49" y="49" fill="none" width="4" height="4"></rect><circle fill="#000000" cx="51" cy="51" r="1"></circle></g><g clip-path="url(#a)"><rect x="49" y="53" fill="none" width="4" height="4"></rect><circle fill="#000000" cx="51" cy="55" r="1"></circle></g><g clip-path="url(#a)"><rect x="49" y="57" fill="none" width="4" height="4"></rect><circle fill="#000000" cx="51" cy="59" r="1"></circle></g><g clip-path="url(#a)"><rect x="49" y="61" fill="none" width="4" height="4"></rect><circle fill="#000000" cx="51" cy="63" r="1"></circle></g><g clip-path="url(#a)"><rect x="49" y="65" fill="none" width="4" height="4"></rect><circle fill="#000000" cx="51" cy="67" r="1"></circle></g><g clip-path="url(#a)"><rect x="49" y="69" fill="none" width="4" height="4"></rect><circle fill="#000000" cx="51" cy="71" r="1"></circle></g><g clip-path="url(#a)"><rect x="49" y="73" fill="none" width="4" height="4"></rect><circle fill="#000000" cx="51" cy="75" r="1"></circle></g><g clip-path="url(#a)"><rect x="49" y="77" fill="none" width="4" height="4"></rect><circle fill="#000000" cx="51" cy="79" r="1"></circle></g><g clip-path="url(#a)"><rect x="45" y="41" fill="none" width="4" height="4"></rect><circle fill="#000000" cx="47" cy="43" r="1"></circle></g><g clip-path="url(#a)"><rect x="45" y="45" fill="none" width="4" height="4"></rect><circle fill="#000000" cx="47" cy="47" r="1"></circle></g><g clip-path="url(#a)"><rect x="45" y="49" fill="none" width="4" height="4"></rect><circle fill="#000000" cx="47" cy="51" r="1"></circle></g><g clip-path="url(#a)"><rect x="45" y="53" fill="none" width="4" height="4"></rect><circle fill="#000000" cx="47" cy="55" r="1"></circle></g><g clip-path="url(#a)"><rect x="45" y="57" fill="none" width="4" height="4"></rect><circle fill="#000000" cx="47" cy="59" r="1"></circle></g><g clip-path="url(#a)"><rect x="45" y="61" fill="none" width="4" height="4"></rect><circle fill="#000000" cx="47" cy="63" r="1"></circle></g><g clip-path="url(#a)"><rect x="45" y="65" fill="none" width="4" height="4"></rect><circle fill="#000000" cx="47" cy="67" r="1"></circle></g><g clip-path="url(#a)"><rect x="45" y="69" fill="none" width="4" height="4"></rect><circle fill="#000000" cx="47" cy="71" r="1"></circle></g><g clip-path="url(#a)"><rect x="45" y="73" fill="none" width="4" height="4"></rect><circle fill="#000000" cx="47" cy="75" r="1"></circle></g><g clip-path="url(#a)"><rect x="45" y="77" fill="none" width="4" height="4"></rect><circle fill="#000000" cx="47" cy="79" r="1"></circle></g><g clip-path="url(#a)"><rect x="41" y="41" fill="none" width="4" height="4"></rect><circle fill="#000000" cx="43" cy="43" r="1"></circle></g><g clip-path="url(#a)"><rect x="41" y="45" fill="none" width="4" height="4"></rect><circle fill="#000000" cx="43" cy="47" r="1"></circle></g><g clip-path="url(#a)"><rect x="41" y="49" fill="none" width="4" height="4"></rect><circle fill="#000000" cx="43" cy="51" r="1"></circle></g><g clip-path="url(#a)"><rect x="41" y="53" fill="none" width="4" height="4"></rect><circle fill="#000000" cx="43" cy="55" r="1"></circle></g><g clip-path="url(#a)"><rect x="41" y="57" fill="none" width="4" height="4"></rect><circle fill="#000000" cx="43" cy="59" r="1"></circle></g><g clip-path="url(#a)"><rect x="41" y="61" fill="none" width="4" height="4"></rect><circle fill="#000000" cx="43" cy="63" r="1"></circle></g><g clip-path="url(#a)"><rect x="41" y="65" fill="none" width="4" height="4"></rect><circle fill="#000000" cx="43" cy="67" r="1"></circle></g><g clip-path="url(#a)"><rect x="41" y="69" fill="none" width="4" height="4"></rect><circle fill="#000000" cx="43" cy="71" r="1"></circle></g><g clip-path="url(#a)"><rect x="41" y="73" fill="none" width="4" height="4"></rect><circle fill="#000000" cx="43" cy="75" r="1"></circle></g><g clip-path="url(#a)"><rect x="41" y="77" fill="none" width="4" height="4"></rect><circle fill="#000000" cx="43" cy="79" r="1"></circle></g></g></g><g><path fill="#000000" d="M68.25,73h-0.5C65.131,73,63,70.869,63,68.25v-16.5c0-2.619,2.131-4.75,4.75-4.75h0.5   c2.619,0,4.75,2.131,4.75,4.75v16.5C73,70.869,70.869,73,68.25,73z M67.75,49C66.233,49,65,50.233,65,51.75v16.5   c0,1.517,1.233,2.75,2.75,2.75h0.5c1.517,0,2.75-1.233,2.75-2.75v-16.5c0-1.517-1.233-2.75-2.75-2.75H67.75z"></path></g><g><g><path fill="#000000" d="M64.77,17.1L64.77,17.1c-0.782,0-1.542-0.228-2.197-0.66c-0.893-0.588-1.503-1.488-1.718-2.535    c-0.216-1.047-0.01-2.114,0.578-3.006C62.175,9.772,63.424,9.1,64.775,9.1c0.782,0,1.543,0.228,2.198,0.66    c0.892,0.588,1.502,1.488,1.717,2.535c0.216,1.047,0.01,2.114-0.578,3.006C67.37,16.427,66.121,17.1,64.77,17.1z M64.775,11.1    c-0.677,0-1.302,0.336-1.673,0.899c-0.294,0.447-0.396,0.98-0.289,1.503c0.107,0.523,0.412,0.974,0.858,1.268    c0.896,0.59,2.186,0.318,2.771-0.57c0.294-0.446,0.396-0.98,0.289-1.503c-0.107-0.523-0.412-0.974-0.858-1.268    C65.545,11.213,65.165,11.1,64.775,11.1z"></path></g><g><path fill="#000000" d="M59.903,21.985c-0.188,0-0.38-0.053-0.549-0.165c-0.462-0.304-0.589-0.924-0.285-1.385l3.11-4.72    c0.304-0.46,0.926-0.589,1.385-0.285c0.462,0.304,0.589,0.924,0.285,1.385l-3.11,4.72C60.547,21.827,60.229,21.985,59.903,21.985z    "></path></g></g><g><g><defs><rect id="c" x="55" y="76" width="5" height="13"></rect></defs><clipPath id="b"><use xlink:href="#c" overflow="visible"></use></clipPath><g clip-path="url(#b)"><rect x="57" y="73" fill="none" width="4" height="4"></rect><circle fill="#000000" cx="59" cy="75" r="1"></circle></g><g clip-path="url(#b)"><rect x="57" y="77" fill="none" width="4" height="4"></rect><circle fill="#000000" cx="59" cy="79" r="1"></circle></g><g clip-path="url(#b)"><rect x="57" y="81" fill="none" width="4" height="4"></rect><circle fill="#000000" cx="59" cy="83" r="1"></circle></g><g clip-path="url(#b)"><rect x="57" y="85" fill="none" width="4" height="4"></rect><circle fill="#000000" cx="59" cy="87" r="1"></circle></g><g clip-path="url(#b)"><rect x="53" y="73" fill="none" width="4" height="4"></rect><circle fill="#000000" cx="55" cy="75" r="1"></circle></g><g clip-path="url(#b)"><rect x="53" y="77" fill="none" width="4" height="4"></rect><circle fill="#000000" cx="55" cy="79" r="1"></circle></g><g clip-path="url(#b)"><rect x="53" y="81" fill="none" width="4" height="4"></rect><circle fill="#000000" cx="55" cy="83" r="1"></circle></g><g clip-path="url(#b)"><rect x="53" y="85" fill="none" width="4" height="4"></rect><circle fill="#000000" cx="55" cy="87" r="1"></circle></g></g></g></svg>